# xmcd CD database file
#
# Track frame offsets:
#	150
#	13200
#	24477
#	37651
#	48601
#	74776
#	95776
#	111271
#	123451
#	138076
#	156901
#
# Disc length: 2391 seconds
#
# Revision: 0
# Processed by: cddbd v1.4PL0 Copyright (c) Steve Scherf et al.
# Submitted via: CDex 1.40Release
#
DISCID=9a09550b
DTITLE=Panama Reunion - Live
DYEAR=1900
DGENRE=Blues
TTITLE0=Hitman In Disguise
TTITLE1=Inside Of My Heart
TTITLE2=Stand Up On Your Feet
TTITLE3=Resist Him and He'll Run
TTITLE4=I Didn't Wake Up This Morning
TTITLE5=Lookin' For a Job
TTITLE6=I've Got a Friend
TTITLE7=Concussion
TTITLE8=64 in a 45 on 40
TTITLE9=Come If You're Weary
TTITLE10=Jihad
EXTD=ID3G: 0
EXTT0=
EXTT1=
EXTT2=
EXTT3=
EXTT4=
EXTT5=
EXTT6=
EXTT7=
EXTT8=
EXTT9=
EXTT10=
PLAYORDER=
